<?xml version="1.0" encoding="UTF-8"?>
<svg width="700pt" height="700pt" version="1.1" viewBox="0 0 700 700" xmlns="http://www.w3.org/2000/svg">
 <g>
  <path d="m385.54 118.61c-34.516-9.6445-71.461-4.9883-102.51 12.914-31.125 17.766-53.918 47.164-63.371 81.73-9.4492 34.566-4.7852 71.473 12.969 102.6 7.75 13.742 17.922 25.965 30.023 36.09 21.148 17.922 47.297 28.906 74.898 31.465 27.605 2.5625 55.328-3.4297 79.41-17.156 7.1992-4.0312 13.973-8.7734 20.223-14.152 20.953-17.613 35.996-41.234 43.09-67.668 1.2305-4.1836 2.1641-8.4453 2.8008-12.754 5.7344-33.082-1.0859-67.109-19.129-95.422-18.039-28.312-46-48.871-78.406-57.648zm16.023 220.58c-23.957 13.648-52.348 17.234-78.941 9.9727-26.598-7.2617-49.227-24.777-62.926-48.703-5.0469-8.793-8.7695-18.281-11.043-28.156 5.25-22.902 18.105-43.352 36.469-58.012 18.359-14.66 41.145-22.668 64.641-22.723 9.3555 0.007813 18.668 1.2617 27.691 3.7344 26.621 7.1602 49.258 24.699 62.844 48.688 5.0977 8.7656 8.8242 18.262 11.043 28.156-0.23828 1.4141-0.54688 2.8164-0.93359 4.1992-7.2812 26.609-24.855 49.223-48.844 62.844z"/>
  <path d="m629.92 248.96c0.03125-2.7266-0.66797-5.4102-2.0234-7.7773l-132.22-229.13c-2.7617-4.7852-7.8555-7.7461-13.379-7.7773h-264.6c-5.5234 0.03125-10.617 2.9922-13.379 7.7773l-132.22 229.13h0.003906c-1.4023 2.3555-2.1562 5.0391-2.1797 7.7773v62.223c0.023437 2.7422 0.77344 5.4258 2.1797 7.7773l132.22 228.98-0.003907 0.003906c2.7617 4.7852 7.8555 7.7461 13.379 7.7773h264.6c5.5234-0.03125 10.617-2.9922 13.379-7.7773l132.22-228.98-0.003906-0.003906c1.4102-2.3438 2.1133-5.043 2.0234-7.7773h0.15625v-62.223zm-51.332 31.109-105.31 182.31-246.55 0.003906-105.31-182.31-17.891-31.109 100.8-174.69 22.398-38.891h246.55l22.398 38.891 100.8 174.69z"/>
 </g>
</svg>
