<?xml version="1.0" encoding="UTF-8" standalone="no"?>
<!-- Created with Inkscape (http://www.inkscape.org/) -->

<svg
   width="54.861012mm"
   height="12.126089mm"
   viewBox="0 0 54.861012 12.126089"
   version="1.1"
   id="svg5"
   inkscape:version="1.1.2 (b8e25be833, 2022-02-05)"
   sodipodi:docname="logo_160922.svg"
   inkscape:export-filename="G:\COSAS\1-ARCHIVOS PERSONALES\web apps\fastcad\web\img\g1832.png"
   inkscape:export-xdpi="600"
   inkscape:export-ydpi="600"
   xmlns:inkscape="http://www.inkscape.org/namespaces/inkscape"
   xmlns:sodipodi="http://sodipodi.sourceforge.net/DTD/sodipodi-0.dtd"
   xmlns="http://www.w3.org/2000/svg"
   xmlns:svg="http://www.w3.org/2000/svg">
  <sodipodi:namedview
     id="namedview7"
     pagecolor="#ffffff"
     bordercolor="#666666"
     borderopacity="1.0"
     inkscape:pageshadow="2"
     inkscape:pageopacity="0.0"
     inkscape:pagecheckerboard="0"
     inkscape:document-units="mm"
     showgrid="false"
     inkscape:zoom="2.9611952"
     inkscape:cx="95.062966"
     inkscape:cy="-26.003014"
     inkscape:window-width="1920"
     inkscape:window-height="1017"
     inkscape:window-x="-8"
     inkscape:window-y="-8"
     inkscape:window-maximized="1"
     inkscape:current-layer="g1832"
     fit-margin-top="0"
     fit-margin-left="0"
     fit-margin-right="0"
     fit-margin-bottom="0" />
  <defs
     id="defs2" />
  <g
     inkscape:label="Capa 1"
     inkscape:groupmode="layer"
     id="layer1"
     transform="translate(-38.61388,-120.39922)">
    <text
       xml:space="preserve"
       style="font-style:normal;font-weight:normal;font-size:10.5833px;line-height:1.25;font-family:sans-serif;fill:#000000;fill-opacity:1;stroke:none;stroke-width:0.264583"
       x="50.407806"
       y="134.46141"
       id="text1574-2"><tspan
         sodipodi:role="line"
         id="tspan1572-1"
         style="font-style:normal;font-variant:normal;font-weight:bold;font-stretch:normal;font-family:'Century Gothic';-inkscape-font-specification:'Century Gothic Bold';stroke-width:0.264583"
         x="50.407806"
         y="134.46141" /></text>
    <g
       id="g1832"
       transform="matrix(1.1024737,0,0,1.1024737,430.25776,520.58933)"
       inkscape:export-filename="G:\COSAS\1-ARCHIVOS PERSONALES\web apps\fastcad\web\img\g1832.png"
       inkscape:export-xdpi="300"
       inkscape:export-ydpi="300">
      <g
         id="g18664"
         transform="matrix(1.1618684,0,0,1.1618684,49.45205,68.486032)">
        <path
           id="text6971-0-4-4-4-1-0-8-2"
           style="font-style:normal;font-weight:normal;font-size:7.40261px;line-height:1.25;font-family:sans-serif;letter-spacing:-0.302459px;fill:#0000ff;fill-opacity:1;stroke:none;stroke-width:1.4933;stroke-linecap:round;stroke-linejoin:round;stroke-miterlimit:4;stroke-dasharray:none;paint-order:stroke fill markers"
           d="m -322.60523,-368.92171 c -0.81622,0 -1.37981,0.13033 -1.69074,0.39001 -0.20561,0.17032 -0.34185,0.42914 -0.41153,0.77299 l 0.91164,0.52602 0.45842,0.26497 c 0.0112,-0.31665 0.0748,-0.53273 0.19842,-0.63742 0.13685,-0.11663 0.44476,-0.17505 0.92348,-0.17505 h 1.11691 c 0.25574,0 0.44189,0.042 0.55849,0.12606 0.11865,0.082 0.17819,0.21167 0.17819,0.38957 v 0.0461 h 1.39906 c 0.004,-0.0328 0.007,-0.0667 0.007,-0.10134 0.002,-0.0369 0.004,-0.0888 0.004,-0.15618 0,-0.28232 -0.0344,-0.51664 -0.10404,-0.70281 -0.0674,-0.18808 -0.17415,-0.33745 -0.31938,-0.44789 -0.13707,-0.10629 -0.32423,-0.18224 -0.56152,-0.22729 -0.23731,-0.0452 -0.60653,-0.0676 -1.10774,-0.0676 z m 6.14715,0.0553 -2.49448,4.56914 h 1.52188 l 0.44485,-0.76118 h 2.78314 l 0.44225,0.76118 h 1.53107 l -2.44887,-4.56914 z m 4.44456,0 v 4.56914 h 4.41555 c 0.55236,0 0.95544,-0.1164 1.20911,-0.34967 0.25367,-0.23527 0.38036,-0.60653 0.38036,-1.1139 v -1.57142 c 0,-0.53393 -0.15864,-0.92265 -0.47557,-1.1661 -0.31708,-0.24547 -0.82427,-0.36805 -1.52188,-0.36805 z m -3.57591,1.09235 0.88666,1.61711 h -1.75531 z m 4.96881,0.0339 h 2.18782 c 0.35391,0 0.61388,0.0636 0.77958,0.19033 0.16785,0.12471 0.2518,0.32117 0.2518,0.58916 v 0.80373 c 0,0.25774 -0.0688,0.44699 -0.20583,0.56768 -0.13684,0.12067 -0.35393,0.18112 -0.65059,0.18112 h -2.36285 z m -12.71812,1.54514 -0.45712,0.26409 -0.91998,0.53128 c 0.0202,0.10359 0.0452,0.20089 0.0789,0.28646 0.084,0.21077 0.2182,0.3887 0.4023,0.53393 0.15954,0.12269 0.35185,0.20942 0.57689,0.26057 0.22502,0.0512 0.57581,0.0768 1.05246,0.0768 h 1.55871 c 0.48074,0 0.84486,-0.0236 1.09239,-0.0708 0.24959,-0.047 0.44906,-0.12561 0.5984,-0.23603 0.15752,-0.1146 0.27338,-0.26731 0.34699,-0.45755 0.0735,-0.1901 0.11011,-0.43135 0.11011,-0.72389 0,-0.0654 -0.004,-0.16494 -0.0112,-0.29785 -0.002,-0.0157 -0.005,-0.0276 -0.005,-0.0339 h -1.41438 v 0.0492 c 0,0.2414 -0.0697,0.40705 -0.20875,0.49705 -0.1373,0.0881 -0.42735,0.13213 -0.87128,0.13213 h -0.8103 c -0.44802,0 -0.74751,-0.0616 -0.89889,-0.18426 -0.14292,-0.11595 -0.21617,-0.32709 -0.22426,-0.62736 z" />
        <path
           sodipodi:type="star"
           style="fill:#000000;fill-opacity:1;stroke:none;stroke-width:6.64819;stroke-linecap:round;stroke-miterlimit:4;stroke-dasharray:none"
           id="path1720-3-9-6-6-0"
           inkscape:flatsided="false"
           sodipodi:sides="3"
           sodipodi:cx="-68.891106"
           sodipodi:cy="39.17337"
           sodipodi:r1="24.799801"
           sodipodi:r2="12.3999"
           sodipodi:arg1="0"
           sodipodi:arg2="1.0471976"
           inkscape:rounded="0"
           inkscape:randomized="0"
           transform="matrix(0.03832727,0,0,0.03832727,-321.62004,-368.08326)"
           inkscape:transform-center-x="-0.62898781"
           d="m -44.091305,39.17337 -18.599851,10.738629 -18.59985,10.738629 0,-21.477258 0,-21.477257 18.599851,10.738629 z"
           inkscape:transform-center-y="-5.0911155e-06" />
        <text
           xml:space="preserve"
           style="font-style:normal;font-weight:normal;font-size:6.71521px;line-height:1.25;font-family:sans-serif;letter-spacing:-0.0730057px;fill:#000000;fill-opacity:1;stroke:none;stroke-width:0.167881"
           x="-348.59073"
           y="-364.14072"
           id="text1574-0-0-5-9-4-5-2-8-6-3-5-3-0"><tspan
             sodipodi:role="line"
             id="tspan1572-5-2-4-8-6-0-9-9-7-3-3-6-0"
             style="font-style:normal;font-variant:normal;font-weight:bold;font-stretch:normal;font-family:'Square721 BdEx BT';-inkscape-font-specification:'Square721 BdEx BT Bold';fill:#000000;fill-opacity:1;stroke-width:0.167881"
             x="-348.59073"
             y="-364.14072">RAPI</tspan></text>
      </g>
    </g>
  </g>
</svg>
